<svg xmlns="http://www.w3.org/2000/svg" xmlns:xlink="http://www.w3.org/1999/xlink" xml:space="preserve" version="1.0" style="shape-rendering:geometricPrecision;text-rendering:geometricPrecision;image-rendering:optimizeQuality;" viewBox="0 0 249 171.25" x="0px" y="0px" fill-rule="evenodd" clip-rule="evenodd"><defs><style type="text/css">
   
    .fil0 {fill:black}
    .fil1 {fill:black;fill-rule:nonzero}
   
  </style></defs><g><path class="fil0" d="M51 32l0 73c0,15 -23,15 -23,0l0 -73c0,-15 23,-15 23,0z"/><path class="fil0" d="M83 32l0 73c0,15 -23,15 -23,0l0 -73c0,-15 23,-15 23,0z"/><path class="fil0" d="M115 32l0 73c0,15 -23,15 -23,0l0 -73c0,-15 23,-15 23,0z"/><path class="fil0" d="M147 32l0 73c0,15 -23,15 -23,0l0 -73c0,-15 23,-15 23,0z"/><path class="fil1" d="M26 0l187 0c14,0 26,12 26,26l0 16c4,-2 10,0 10,6l0 41c0,6 -6,7 -10,5l0 17c0,14 -12,26 -26,26l-187 0c-14,0 -26,-12 -26,-26l0 -85c0,-14 12,-26 26,-26zm187 15l-187 0c-6,0 -11,5 -11,11l0 85c0,6 5,11 11,11l187 0c6,0 11,-5 11,-11l0 -85c0,-6 -5,-11 -11,-11z"/></g><text x="0" y="152" fill="#000000" font-size="5px" font-weight="bold" font-family="'Helvetica Neue', Helvetica, Arial-Unicode, Arial, Sans-serif">Created by misnaliningsih</text><text x="0" y="157" fill="#000000" font-size="5px" font-weight="bold" font-family="'Helvetica Neue', Helvetica, Arial-Unicode, Arial, Sans-serif">from the Noun Project</text></svg>