<svg xmlns="http://www.w3.org/2000/svg" xmlns:xlink="http://www.w3.org/1999/xlink" version="1.1" x="0px" y="0px" viewBox="0 0 128 160" style="enable-background:new 0 0 128 128;" xml:space="preserve"><g><g><g><path d="M64,53.441c-5.769,0-10.461,4.736-10.461,10.559S58.231,74.559,64,74.559S74.461,69.822,74.461,64     S69.769,53.441,64,53.441z"/><path d="M90.442,57.23h-3.621c-0.488-1.722-1.158-3.384-2.001-4.965l2.612-2.677c0.758-0.777,0.758-2.016,0-2.793l-6.575-6.739     c-0.378-0.388-0.9-0.605-1.439-0.604c-0.542,0.002-1.059,0.223-1.434,0.614l-2.555,2.656c-1.512-0.848-3.108-1.52-4.774-2.009     V36.9c0-1.104-0.896-2-2-2h-9.308c-1.104,0-2,0.896-2,2v3.769c-1.656,0.495-3.254,1.168-4.776,2.014l-2.563-2.626     c-0.376-0.386-0.893-0.604-1.432-0.604s-1.055,0.218-1.432,0.604l-6.575,6.739c-0.758,0.777-0.758,2.016,0,2.793l2.604,2.669     c-0.849,1.573-1.519,3.236-2.003,4.973h-3.612c-1.104,0-2,0.896-2,2v9.539c0,1.104,0.896,2,2,2h3.621     c0.488,1.722,1.158,3.384,2.001,4.965l-2.612,2.677c-0.758,0.777-0.758,2.016,0,2.793l6.575,6.739     c0.753,0.772,2.11,0.771,2.863,0l2.554-2.618c1.515,0.851,3.115,1.525,4.785,2.015v3.76c0,1.104,0.896,2,2,2h9.308     c1.104,0,2-0.896,2-2v-3.769c1.656-0.495,3.254-1.168,4.776-2.014l2.563,2.626c0.376,0.386,0.893,0.604,1.432,0.604     s1.055-0.218,1.432-0.604l6.575-6.739c0.758-0.777,0.758-2.016,0-2.793l-2.604-2.669c0.849-1.573,1.519-3.236,2.003-4.973h3.612     c1.104,0,2-0.896,2-2V59.23C92.442,58.126,91.546,57.23,90.442,57.23z M64,78.559c-7.974,0-14.461-6.531-14.461-14.559     S56.026,49.441,64,49.441S78.461,55.972,78.461,64S71.974,78.559,64,78.559z"/></g><g><g><path d="M96.634,15.524c-3.413,0-6.189-2.791-6.189-6.222s2.776-6.222,6.189-6.222s6.189,2.791,6.189,6.222      S100.047,15.524,96.634,15.524z"/><path d="M64,31.11c-1.104,0-2-0.896-2-2V13.62c0-1.104,0.896-2,2-2s2,0.896,2,2v15.49C66,30.214,65.104,31.11,64,31.11z"/><path d="M76.389,36.002c-1.104,0-2-0.896-2-2V9.311c0-1.104,0.896-2,2-2h15.875c1.104,0,2,0.896,2,2s-0.896,2-2,2H78.389v22.691      C78.389,35.106,77.493,36.002,76.389,36.002z"/><path d="M52.133,36.002c-1.104,0-2-0.896-2-2V11.311H37.328c-1.104,0-2-0.896-2-2s0.896-2,2-2h14.805c1.104,0,2,0.896,2,2      v24.691C54.133,35.106,53.237,36.002,52.133,36.002z"/><path d="M64,14.444c-3.413,0-6.189-2.791-6.189-6.222S60.587,2,64,2s6.189,2.791,6.189,6.222S67.413,14.444,64,14.444z"/><path d="M31.366,15.524c-3.413,0-6.189-2.791-6.189-6.222s2.776-6.222,6.189-6.222s6.189,2.791,6.189,6.222      S34.779,15.524,31.366,15.524z"/></g><g><path d="M96.634,124.92c-3.413,0-6.189-2.791-6.189-6.222s2.776-6.222,6.189-6.222s6.189,2.791,6.189,6.222      S100.047,124.92,96.634,124.92z"/><path d="M64,116.38c-1.104,0-2-0.896-2-2V98.89c0-1.104,0.896-2,2-2s2,0.896,2,2v15.49C66,115.485,65.104,116.38,64,116.38z"/><path d="M92.264,120.689H76.389c-1.104,0-2-0.896-2-2V93.998c0-1.104,0.896-2,2-2s2,0.896,2,2v22.691h13.875      c1.104,0,2,0.896,2,2S93.369,120.689,92.264,120.689z"/><path d="M52.133,120.689H37.328c-1.104,0-2-0.896-2-2s0.896-2,2-2h12.805V93.998c0-1.104,0.896-2,2-2s2,0.896,2,2v24.691      C54.133,119.793,53.237,120.689,52.133,120.689z"/><path d="M64,126c-3.413,0-6.189-2.791-6.189-6.222s2.776-6.222,6.189-6.222s6.189,2.791,6.189,6.222S67.413,126,64,126z"/><path d="M31.366,124.92c-3.413,0-6.189-2.791-6.189-6.222s2.776-6.222,6.189-6.222s6.189,2.791,6.189,6.222      S34.779,124.92,31.366,124.92z"/></g><g><path d="M29.916,65.46H14.545c-1.104,0-2-0.896-2-2s0.896-2,2-2h15.371c1.104,0,2,0.896,2,2S31.02,65.46,29.916,65.46z"/><path d="M10.27,51.997c-1.104,0-2-0.896-2-2V34.976c0-1.104,0.896-2,2-2s2,0.896,2,2v15.021      C12.27,51.101,11.375,51.997,10.27,51.997z"/><path d="M10.27,92.34c-1.104,0-2-0.896-2-2V75.42c0-1.104,0.896-2,2-2h24.5c1.104,0,2,0.896,2,2s-0.896,2-2,2h-22.5v12.92      C12.27,91.444,11.375,92.34,10.27,92.34z"/><path d="M9.189,69.683C5.776,69.683,3,66.892,3,63.46s2.776-6.223,6.189-6.223s6.189,2.792,6.189,6.223      S12.603,69.683,9.189,69.683z"/><path d="M10.261,36.794c-3.413,0-6.189-2.791-6.189-6.222s2.776-6.222,6.189-6.222s6.189,2.791,6.189,6.222      S13.674,36.794,10.261,36.794z"/><path d="M10.261,102.571c-3.413,0-6.189-2.791-6.189-6.222s2.776-6.222,6.189-6.222s6.189,2.791,6.189,6.222      S13.674,102.571,10.261,102.571z"/></g><g><path d="M113.455,65.46H98.084c-1.104,0-2-0.896-2-2s0.896-2,2-2h15.371c1.104,0,2,0.896,2,2S114.56,65.46,113.455,65.46z"/><path d="M117.73,52.975h-24.5c-1.104,0-2-0.896-2-2s0.896-2,2-2h22.5V33.997c0-1.104,0.896-2,2-2s2,0.896,2,2v16.978      C119.73,52.08,118.834,52.975,117.73,52.975z"/><path d="M117.73,92.34c-1.104,0-2-0.896-2-2V77.42h-22.5c-1.104,0-2-0.896-2-2s0.896-2,2-2h24.5c1.104,0,2,0.896,2,2v14.92      C119.73,91.444,118.834,92.34,117.73,92.34z"/><path d="M118.811,69.683c-3.413,0-6.189-2.791-6.189-6.222s2.776-6.223,6.189-6.223S125,60.029,125,63.46      S122.224,69.683,118.811,69.683z"/><path d="M117.739,35.816c-3.413,0-6.189-2.792-6.189-6.223s2.776-6.222,6.189-6.222s6.189,2.791,6.189,6.222      S121.152,35.816,117.739,35.816z"/><path d="M117.739,102.571c-3.413,0-6.189-2.791-6.189-6.222s2.776-6.222,6.189-6.222s6.189,2.791,6.189,6.222      S121.152,102.571,117.739,102.571z"/></g></g></g></g><text x="0" y="143" fill="#000000" font-size="5px" font-weight="bold" font-family="'Helvetica Neue', Helvetica, Arial-Unicode, Arial, Sans-serif">Created by SBTS</text><text x="0" y="148" fill="#000000" font-size="5px" font-weight="bold" font-family="'Helvetica Neue', Helvetica, Arial-Unicode, Arial, Sans-serif">from the Noun Project</text></svg>