<svg xmlns="http://www.w3.org/2000/svg" xmlns:xlink="http://www.w3.org/1999/xlink" version="1.1" x="0px" y="0px" viewBox="0 0 96 120" enable-background="new 0 0 96 96" xml:space="preserve"><path d="M70.205,17.023v1.5c3.687,0,6.687,3,6.687,6.687c0,3.687-3,6.686-6.687,6.686s-6.686-3-6.686-6.686h-1.5  c0,4.514,3.672,8.186,8.186,8.186c1.84,0,3.534-0.618,4.903-1.646c4.193,16.405-2.531,21.07-4.584,22.079L59.535,34.794H36.464  L25.479,53.819c-2.011-1.026-8.742-5.796-4.588-22.069c1.368,1.028,3.063,1.646,4.902,1.646c4.514,0,8.187-3.672,8.187-8.186h-1.5  c0,3.687-3,6.686-6.687,6.686s-6.686-3-6.686-6.686c0-3.687,2.999-6.687,6.686-6.687v-1.5c-4.514,0-8.186,3.672-8.186,8.187  c0,2.062,0.771,3.942,2.034,5.383c-5.23,19.338,3.844,24.063,5.636,24.789l11.186,19.374h4.672l-3.906,4.78  c-3.062,0.193-5.494,2.738-5.494,5.848c0,3.235,2.631,5.866,5.865,5.866c3.235,0,5.867-2.631,5.867-5.866  c0-2.74-1.892-5.041-4.436-5.683l4.042-4.945h9.852l4.04,4.945c-2.543,0.642-4.434,2.942-4.434,5.683  c0,3.235,2.631,5.866,5.865,5.866c3.235,0,5.867-2.631,5.867-5.866c0-3.109-2.434-5.655-5.496-5.848l-3.904-4.78h4.671  l11.186-19.374c1.792-0.727,10.864-5.451,5.636-24.789c1.263-1.441,2.035-3.322,2.035-5.384  C78.392,20.696,74.719,17.023,70.205,17.023z M39.973,43.543c0-1.384,1.126-2.511,2.511-2.511s2.511,1.126,2.511,2.511  s-1.126,2.511-2.511,2.511S39.973,44.927,39.973,43.543z M41.288,65.626c0.374-3.288,3.173-5.851,6.559-5.851  c3.387,0,6.186,2.563,6.56,5.851H41.288z M53.517,46.054c-1.385,0-2.511-1.126-2.511-2.511s1.126-2.511,2.511-2.511  s2.511,1.126,2.511,2.511S54.901,46.054,53.517,46.054z"/><path d="M47.847,28.584h11.917V16.667c0-6.571-5.346-11.917-11.917-11.917c-6.57,0-11.916,5.346-11.916,11.917  S41.276,28.584,47.847,28.584z M42.249,11.706h11.196v1.5H42.249V11.706z M42.249,15.917h11.196v1.5H42.249V15.917z M42.249,20.128  h11.196v1.5H42.249V20.128z"/><text x="0" y="111" fill="#000000" font-size="5px" font-weight="bold" font-family="'Helvetica Neue', Helvetica, Arial-Unicode, Arial, Sans-serif">Created by glyph.faisalovers</text><text x="0" y="116" fill="#000000" font-size="5px" font-weight="bold" font-family="'Helvetica Neue', Helvetica, Arial-Unicode, Arial, Sans-serif">from the Noun Project</text></svg>