<svg xmlns="http://www.w3.org/2000/svg" xmlns:xlink="http://www.w3.org/1999/xlink" version="1.1" x="0px" y="0px" viewBox="0 0 100 125" style="enable-background:new 0 0 100 100;" xml:space="preserve"><path d="M63.3,46.3L48.2,75.2c-0.2,0.5-0.7,0.7-1.1,0.7c-0.7,0-1.4-0.6-1.2-1.4l2.8-17.6c0.1-0.7-0.5-1.4-1.2-1.4h-9.7  c-0.9,0-1.5-1-1.1-1.8l15.1-29c0.2-0.5,0.6-0.7,1.1-0.7c0.7,0,1.4,0.6,1.2,1.4l-2.8,17.6c-0.1,0.7,0.5,1.4,1.2,1.4h9.7  C63.2,44.5,63.7,45.5,63.3,46.3z"/><text x="0" y="115" fill="#000000" font-size="5px" font-weight="bold" font-family="'Helvetica Neue', Helvetica, Arial-Unicode, Arial, Sans-serif">Created by Faris Ma'ruf</text><text x="0" y="120" fill="#000000" font-size="5px" font-weight="bold" font-family="'Helvetica Neue', Helvetica, Arial-Unicode, Arial, Sans-serif">from the Noun Project</text></svg>