<svg width="403" height="146" xmlns="http://www.w3.org/2000/svg" xmlns:xlink="http://www.w3.org/1999/xlink" overflow="hidden"><defs><clipPath id="clip0"><rect x="408" y="255" width="403" height="146"/></clipPath><clipPath id="clip1"><rect x="441" y="279" width="332" height="122"/></clipPath><clipPath id="clip2"><rect x="441" y="279" width="332" height="144"/></clipPath></defs><g clip-path="url(#clip0)" transform="translate(-408 -255)"><g clip-path="url(#clip1)"><g clip-path="url(#clip2)"><path d="M97.193 83.4863 125.853 80.9942 134.575 97.193 103.423 97.193 97.193 88.4706Z" fill="#C00000" fill-rule="evenodd" transform="matrix(1.00001 0 0 1 441.543 279.001)"/><path d="M2.49213 74.7639C8.72245 79.7481 13.7067 80.9942 18.691 80.9942L24.9213 89.7166 18.691 97.193C13.7067 95.947 9.96852 93.4548 6.23032 92.2088 2.49213 87.2245 2.49213 80.9942 2.49213 74.7639Z" fill="#C00000" fill-rule="evenodd" transform="matrix(1.00001 0 0 1 441.543 279.001)"/><path d="M72.2717 23.6752 59.8111 29.9055C59.8111 29.9055 59.8111 29.9055 59.8111 28.6595 58.565 24.9213 71.0257 22.4292 72.2717 23.6752Z" fill="#C00000" fill-rule="evenodd" transform="matrix(1.00001 0 0 1 441.543 279.001)"/><path d="M289.087 41.1201C287.841 51.0886 285.349 59.8111 282.857 68.5335 279.118 72.2717 274.134 76.0099 270.396 77.256L266.658 72.2717C269.15 63.5493 272.888 53.5808 272.888 41.1201 276.626 34.8898 285.349 38.628 289.087 41.1201Z" fill="#C00000" fill-rule="evenodd" transform="matrix(1.00001 0 0 1 441.543 279.001)"/><path d="M195.632 48.5965C204.355 48.5965 211.831 63.5493 211.831 80.9942 211.831 99.6852 204.355 114.638 195.632 114.638 183.171 114.638 180.679 89.7166 180.679 80.9942 180.679 63.5493 186.91 48.5965 195.632 48.5965Z" fill="#C00000" fill-rule="evenodd" transform="matrix(1.00001 0 0 1 441.543 279.001)"/><path d="M316.5 42.3662C323.977 42.3662 328.961 54.8268 328.961 71.0257 328.961 87.2245 323.977 99.6852 316.5 99.6852 310.27 99.6852 304.04 87.2245 304.04 71.0257 304.04 54.8268 310.27 42.3662 316.5 42.3662Z" fill="#C00000" fill-rule="evenodd" transform="matrix(1.00001 0 0 1 441.543 279.001)"/><path d="M52.3347 34.8898C135.821-12.4606 234.26-9.96852 328.961 32.3977 330.207 39.8741 330.207 48.5965 330.207 56.0729 332.699 57.319 331.453 61.0572 330.207 66.0414 327.715 13.7067 296.563 41.1201 301.548 93.4548 270.396 97.193 241.736 99.6852 210.585 103.423 223.046 42.3662 194.386 29.9055 181.925 62.3032 173.203 63.5493 133.329 72.2717 133.329 72.2717L84.7324 78.5021 85.9784 76.0099 43.6123 78.5021 16.1988 74.7639 17.4449 77.256C11.2146 76.0099 4.98426 74.7639 0 69.7796 9.96852 47.3504 29.9055 34.8898 52.3347 34.8898ZM271.642 79.7481 270.396 79.7481 262.92 73.5178C266.658 62.3032 270.396 52.3347 270.396 39.8741 275.38 31.1516 286.595 36.1359 292.825 39.8741 290.333 49.8426 287.841 59.8111 285.349 69.7796 281.611 73.5178 276.626 77.256 271.642 79.7481ZM180.679 62.3032C176.941 73.5178 174.449 87.2245 175.695 107.162 145.79 107.162 117.13 108.408 87.2245 108.408 63.5493 107.162 37.3819 105.915 13.7067 105.915 8.72245 105.915 6.23032 104.669 1.24606 104.669 1.24606 98.4391 1.24606 95.947 2.49213 93.4548 0 89.7166 0 83.4863 1.24606 73.5178 1.24606 72.2717 0 71.0257 0 69.7796 0 69.7796 0 69.7796 0 69.7796 4.98426 74.7639 11.2146 76.0099 18.691 77.256L16.1988 74.7639 43.6123 78.5021 85.9784 76.0099 84.7324 78.5021 133.329 72.2717 133.329 72.2717C133.329 72.2717 173.203 64.7953 180.679 62.3032ZM259.181 42.3662 265.412 39.8741 265.412 41.1201 259.181 43.6123 259.181 42.3662ZM259.181 41.1201 265.412 38.628 265.412 39.8741 259.181 42.3662 259.181 41.1201ZM215.569 53.5808C247.967 41.1201 279.118 32.3977 310.27 26.1674 285.349 29.9055 247.967 37.3819 215.569 53.5808ZM221.799 22.4292 240.49 22.4292 244.229 27.4134C242.983 28.6595 242.983 29.9055 241.736 31.1516 235.506 33.6437 229.276 34.8898 223.046 33.6437L223.046 39.8741C239.244 33.6437 247.967 29.9055 260.427 24.9213L249.213 12.4606C218.061 2.49213 204.355 11.2146 193.14 34.8898 205.601 36.1359 209.339 43.6123 219.307 41.1201L216.815 29.9055 215.569 28.6595C218.061 26.1674 219.307 23.6752 221.799 22.4292ZM2.49213 73.5178C7.47639 77.256 13.7067 79.7481 19.937 79.7481L26.1674 89.7166 18.691 98.4391 3.73819 93.4548C1.24606 89.7166 0 82.2402 2.49213 73.5178ZM33.6437 94.7009C39.8741 95.947 46.1044 95.947 52.3347 95.947 52.3347 97.193 52.3347 98.4391 52.3347 99.6852 46.1044 99.6852 38.628 98.4391 31.1516 98.4391L33.6437 94.7009ZM54.8268 95.947 84.7324 95.947 84.7324 99.6852 53.5808 99.6852 54.8268 95.947ZM29.9055 98.4391C47.3504 100.931 66.0414 100.931 84.7324 100.931L85.9784 105.915 19.937 103.423 29.9055 98.4391ZM90.9627 83.4863 125.853 78.5021 128.345 76.0099 144.543 95.947 134.575 100.931 98.4391 102.177 90.9627 89.7166 90.9627 83.4863ZM220.553 7.47639C240.49 6.23032 257.935 9.96852 275.38 18.691 279.118 21.1831 284.103 22.4292 287.841 24.9213 281.611 23.6752 275.38 22.4292 269.15 22.4292 262.92 12.4606 245.475 7.47639 220.553 7.47639ZM251.705 12.4606C256.689 13.7067 260.427 17.4449 262.92 19.937L262.92 23.6752 260.427 24.9213 249.213 12.4606C250.459 12.4606 251.705 12.4606 251.705 12.4606ZM110.9 59.8111 115.884 56.0729C129.591 51.0886 143.297 49.8426 155.758 47.3504L133.329 66.0414 118.376 67.2875 110.9 59.8111C104.669 61.0572 104.669 61.0572 95.947 62.3032L62.3032 63.5493 56.0729 61.0572 47.3504 63.5493 28.6595 61.0572C27.4134 61.0572 21.1831 59.8111 19.937 58.565L7.47639 64.7953 3.73819 63.5493C6.23032 58.565 9.96852 54.8268 13.7067 51.0886L21.1831 56.0729 19.937 58.565C21.1831 59.8111 27.4134 61.0572 28.6595 61.0572L47.3504 63.5493 56.0729 61.0572 62.3032 63.5493 95.947 62.3032C103.423 61.0572 103.423 61.0572 110.9 59.8111ZM18.691 47.3504 22.4292 54.8268 21.1831 56.0729 14.9528 51.0886C16.1988 49.8426 17.4449 48.5965 18.691 47.3504ZM119.622 9.96852C149.528 6.23032 178.187 6.23032 204.355 8.72245 196.878 14.9528 190.648 23.6752 184.418 33.6437 164.48 33.6437 144.543 34.8898 123.36 38.628 108.408 38.628 92.2088 37.3819 77.256 38.628 69.7796 36.1359 63.5493 34.8898 56.0729 34.8898 76.0099 23.6752 97.193 14.9528 119.622 9.96852Z" fill="#C00000" fill-rule="evenodd" transform="matrix(1.00001 0 0 1 441.543 279.001)"/><text fill="#C00000" font-family="Helvetica Neue,Helvetica Neue_MSFontService,sans-serif" font-style="italic" font-weight="700" font-size="5" transform="matrix(1.24607 0 0 1.24606 441.543 412)">Created by gufron m<tspan font-size="5" x="0" y="5.61769">from the Noun Project</tspan></text></g></g></g></svg>