<svg xmlns="http://www.w3.org/2000/svg" xmlns:xlink="http://www.w3.org/1999/xlink" version="1.1" baseProfile="basic" x="0px" y="0px" viewBox="0 0 90 112.5" xml:space="preserve"><path d="M45.005,24.393c-1.513,0-2.744-1.231-2.744-2.744c0-1.513,1.231-2.744,2.744-2.744s2.744,1.231,2.744,2.744  C47.75,23.162,46.519,24.393,45.005,24.393z M45.005,20.682c-0.533,0-0.967,0.434-0.967,0.967c0,0.533,0.434,0.967,0.967,0.967  s0.967-0.434,0.967-0.967C45.972,21.115,45.538,20.682,45.005,20.682z"/><path d="M84.186,37.438h-2.193L74.52,13.936c1.016-0.773,1.47-2.137,1.012-3.398c-0.273-0.752-0.823-1.352-1.549-1.69  c-0.726-0.338-1.538-0.373-2.29-0.1c-0.752,0.273-1.352,0.823-1.691,1.549c-0.208,0.446-0.287,0.925-0.264,1.404L50.32,18.744  c-1.03-1.877-3.026-3.154-5.315-3.154c-3.34,0-6.058,2.718-6.058,6.058c0,0.408,0.042,0.806,0.119,1.191l-19.402,7.085  c-0.29-0.381-0.659-0.697-1.104-0.905c-0.725-0.337-1.539-0.374-2.291-0.1c-1.552,0.565-2.355,2.287-1.79,3.839  c0.212,0.583,0.591,1.057,1.06,1.396L8.157,57.371H5.964c-0.491,0-0.889,0.398-0.889,0.889v3.009c0,2.358,1.918,4.276,4.276,4.276  h15.884c2.358,0,4.276-1.918,4.276-4.276V58.26c0-0.491-0.398-0.889-0.889-0.889H26.43l-7.384-23.222  c0.408-0.295,0.744-0.68,0.963-1.148c0.208-0.447,0.287-0.927,0.264-1.405l19.396-7.083c0.543,1.008,1.365,1.842,2.359,2.407v30.516  c-5.215,0.336-9.377,4.56-9.619,9.8h-2.672c-0.491,0-0.889,0.398-0.889,0.889v4.85c0,0.491,0.398,0.889,0.889,0.889h30.537  c0.491,0,0.889-0.398,0.889-0.889v-4.85c0-0.491-0.398-0.889-0.889-0.889h-2.673c-0.242-5.241-4.403-9.464-9.619-9.8V26.919  c1.837-1.042,3.082-3.012,3.082-5.271c0-0.424-0.045-0.838-0.128-1.237l19.41-7.041c0.219,0.288,0.487,0.532,0.798,0.725  l-7.423,23.343h-2.193c-0.491,0-0.889,0.398-0.889,0.889v3.009c0,2.358,1.918,4.276,4.276,4.276h15.884  c2.358,0,4.276-1.918,4.276-4.276v-3.009C85.075,37.836,84.678,37.438,84.186,37.438z M16.877,30.591  c0.136-0.049,0.277-0.074,0.417-0.074c0.176,0,0.35,0.039,0.514,0.115c0.295,0.137,0.518,0.381,0.629,0.687c0,0,0,0,0,0  c0,0,0,0.001,0,0.001c0,0,0,0,0,0c0.111,0.305,0.096,0.635-0.041,0.93c-0.137,0.295-0.381,0.518-0.687,0.629  c-0.629,0.232-1.331-0.097-1.561-0.727C15.92,31.52,16.246,30.82,16.877,30.591z M27.734,61.269c0,1.378-1.121,2.498-2.498,2.498  H9.352c-1.378,0-2.499-1.121-2.499-2.498v-2.12h20.881V61.269z M10.022,57.371l7.202-22.646c0.025,0.001,0.048,0.006,0.073,0.006  c0.022,0,0.044-0.005,0.066-0.006l7.202,22.646H10.022z M59.385,72.085H30.626v-3.072h2.648h23.463h2.648V72.085z M55.835,67.235  H34.176c0.249-4.484,3.975-8.056,8.52-8.056h0.221h4.176h0.221C51.86,59.178,55.586,62.75,55.835,67.235z M46.205,57.401h-2.398  V27.587c0.388,0.078,0.789,0.12,1.199,0.12c0.411,0,0.811-0.042,1.199-0.12V57.401z M45.005,25.929c-2.36,0-4.28-1.921-4.28-4.281  s1.92-4.28,4.28-4.28c2.361,0,4.281,1.92,4.281,4.28S47.366,25.929,45.005,25.929z M71.613,11.047  c0.138-0.294,0.382-0.518,0.688-0.629c0.136-0.049,0.277-0.074,0.418-0.074c0.175,0,0.35,0.038,0.514,0.115  c0.294,0.138,0.518,0.382,0.629,0.687c0.229,0.631-0.097,1.332-0.727,1.561c-0.306,0.112-0.635,0.097-0.931-0.04  c-0.294-0.137-0.517-0.381-0.628-0.686c0,0,0,0,0,0c0-0.001-0.001-0.001-0.001-0.001C71.462,11.673,71.476,11.342,71.613,11.047z   M72.857,14.575l7.27,22.863H65.587L72.857,14.575z M83.297,41.336c0,1.378-1.121,2.498-2.498,2.498H64.915  c-1.378,0-2.498-1.121-2.498-2.498v-2.12h1.951c0.001,0,0.002,0,0.003,0s0.002,0,0.003,0h16.967c0.001,0,0.002,0,0.003,0  s0.002,0,0.003,0h1.951V41.336z"/><text x="0" y="105" fill="#000000" font-size="5px" font-weight="bold" font-family="'Helvetica Neue', Helvetica, Arial-Unicode, Arial, Sans-serif">Created by iconpacks</text><text x="0" y="110" fill="#000000" font-size="5px" font-weight="bold" font-family="'Helvetica Neue', Helvetica, Arial-Unicode, Arial, Sans-serif">from the Noun Project</text></svg>