<svg xmlns="http://www.w3.org/2000/svg" xmlns:xlink="http://www.w3.org/1999/xlink" version="1.1" x="0px" y="0px" viewBox="0 0 100 125" enable-background="new 0 0 100 100" xml:space="preserve"><g><g><path d="M72.754,87.94H27.246c-1.057,0-1.913-0.856-1.913-1.913V23.243c0-1.057,0.856-1.913,1.913-1.913h45.508    c1.057,0,1.913,0.856,1.913,1.913v62.785C74.667,87.084,73.811,87.94,72.754,87.94z M29.159,84.115h41.682V25.156H29.159V84.115z"/></g><g><path d="M62.535,25.156c-1.056,0-1.913-0.856-1.913-1.913v-7.357H39.377v7.357c0,1.057-0.856,1.913-1.913,1.913    c-1.057,0-1.913-0.856-1.913-1.913v-9.271c0-1.057,0.856-1.913,1.913-1.913h25.071c1.057,0,1.913,0.856,1.913,1.913v9.271    C64.448,24.299,63.592,25.156,62.535,25.156z"/></g></g><g><rect x="33.633" y="73.541" width="32.734" height="4.464"/></g><g><rect x="33.633" y="63.085" width="32.734" height="4.463"/></g><g><rect x="33.633" y="52.628" width="32.734" height="4.464"/></g><text x="0" y="115" fill="#000000" font-size="5px" font-weight="bold" font-family="'Helvetica Neue', Helvetica, Arial-Unicode, Arial, Sans-serif">Created by Bestdesignmarket</text><text x="0" y="120" fill="#000000" font-size="5px" font-weight="bold" font-family="'Helvetica Neue', Helvetica, Arial-Unicode, Arial, Sans-serif">from the Noun Project</text></svg>