<svg xmlns="http://www.w3.org/2000/svg" xmlns:xlink="http://www.w3.org/1999/xlink" version="1.1" x="0px" y="0px" viewBox="0 0 64 80" style="enable-background:new 0 0 64 64;" xml:space="preserve"><path d="M27.892,23.548C27.722,23.212,27.377,23,27,23h-3.483l2.402-5.606c0.133-0.309,0.101-0.663-0.084-0.944  C25.649,16.169,25.336,16,25,16H14c-0.489,0-0.906,0.354-0.986,0.836l-2,12c-0.049,0.29,0.033,0.586,0.224,0.811  C11.427,29.871,11.706,30,12,30h4.78l-1.761,8.804c-0.092,0.46,0.148,0.922,0.577,1.111C15.727,39.973,15.864,40,16,40  c0.311,0,0.613-0.146,0.807-0.408l11-15C28.029,24.287,28.062,23.884,27.892,23.548z M17.867,34.763l1.113-5.566  c0.059-0.294-0.018-0.599-0.207-0.83C18.583,28.135,18.3,28,18,28h-4.819l1.666-10h8.637l-2.402,5.606  c-0.133,0.309-0.101,0.663,0.084,0.944C21.351,24.831,21.664,25,22,25h3.026L17.867,34.763z"/><path d="M57,5h-6c-2.757,0-5,2.243-5,5v6v1v6c0,4.072,3.06,7.436,7,7.931V47.5c0,1.379-1.121,2.5-2.5,2.5S48,48.879,48,47.5v-13  c0-2.31-1.756-4.197-4-4.449V11c0-0.553-0.447-1-1-1H32H7c-0.553,0-1,0.447-1,1v43H3c-0.553,0-1,0.447-1,1v6c0,0.553,0.447,1,1,1h33  h11c0.553,0,1-0.447,1-1v-6c0-0.553-0.447-1-1-1h-3V32.051c1.14,0.232,2,1.242,2,2.449v13c0,2.481,2.019,4.5,4.5,4.5  s4.5-2.019,4.5-4.5V30.931c3.94-0.495,7-3.859,7-7.931v-6v-1v-6C62,7.243,59.757,5,57,5z M35,60H4v-4h3c0.553,0,1-0.447,1-1V12h23  v43c0,0.553,0.447,1,1,1h3V60z M33,54V12h9v18h-5v2h5v22h-6H33z M46,56v4h-9v-4h6H46z M54,29c-3.309,0-6-2.691-6-6v-2.026  C48.838,21.609,49.87,22,51,22h6c1.13,0,2.162-0.391,3-1.026V23C60,26.309,57.309,29,54,29z M60,17c0,1.654-1.346,3-3,3h-6  c-1.654,0-3-1.346-3-3v-1v-6c0-1.654,1.346-3,3-3h6c1.654,0,3,1.346,3,3v6V17z"/><rect x="50" y="9" width="2" height="5"/><rect x="56" y="9" width="2" height="5"/><rect x="53" y="16" width="2" height="2"/><rect x="20" y="6" width="2" height="2"/><rect x="20" y="2" width="2" height="2"/><rect x="24" y="2" width="2" height="2"/><rect x="16" y="2" width="2" height="2"/><rect x="10" y="44" width="5" height="2"/><rect x="17" y="44" width="5" height="2"/><rect x="24" y="44" width="5" height="2"/><rect x="10" y="48" width="5" height="2"/><rect x="17" y="48" width="5" height="2"/><rect x="24" y="48" width="5" height="2"/><rect x="10" y="52" width="5" height="2"/><rect x="17" y="52" width="5" height="2"/><rect x="24" y="52" width="5" height="2"/><text x="0" y="79" fill="#000000" font-size="5px" font-weight="bold" font-family="'Helvetica Neue', Helvetica, Arial-Unicode, Arial, Sans-serif">Created by Becris</text><text x="0" y="84" fill="#000000" font-size="5px" font-weight="bold" font-family="'Helvetica Neue', Helvetica, Arial-Unicode, Arial, Sans-serif">from the Noun Project</text></svg>