<svg xmlns="http://www.w3.org/2000/svg" xmlns:xlink="http://www.w3.org/1999/xlink" version="1.1" x="0px" y="0px" viewBox="0 0 65 81.25" enable-background="new 0 0 65 65" xml:space="preserve"><path d="M62.917,37.044H52.815c-0.671-2.627-3.05-4.578-5.883-4.578c-3.352,0-6.079,2.728-6.079,6.079  c0,3.351,2.728,6.077,6.079,6.077c2.833,0,5.213-1.951,5.884-4.578h10.101c0.828,0,1.5-0.672,1.5-1.5S63.745,37.044,62.917,37.044z   M46.933,41.622c-1.698,0-3.079-1.381-3.079-3.077c0-1.698,1.381-3.079,3.079-3.079c1.697,0,3.078,1.381,3.078,3.079  C50.011,40.241,48.63,41.622,46.933,41.622z"/><path d="M47.63,23.206c0.733-0.386,1.015-1.293,0.629-2.026c-0.386-0.734-1.294-1.016-2.025-0.629l-24.709,13  c-0.982-0.683-2.172-1.085-3.456-1.085c-2.833,0-5.213,1.951-5.884,4.578H2.083c-0.829,0-1.5,0.672-1.5,1.5s0.671,1.5,1.5,1.5  h10.101c0.67,2.627,3.051,4.578,5.884,4.578c3.352,0,6.079-2.727,6.079-6.077c0-0.954-0.227-1.854-0.621-2.658L47.63,23.206z   M18.068,41.622c-1.698,0-3.079-1.381-3.079-3.077c0-1.698,1.381-3.079,3.079-3.079s3.079,1.381,3.079,3.079  C21.147,40.241,19.766,41.622,18.068,41.622z"/><text x="0" y="80" fill="#000000" font-size="5px" font-weight="bold" font-family="'Helvetica Neue', Helvetica, Arial-Unicode, Arial, Sans-serif">Created by Mohamed Mb</text><text x="0" y="85" fill="#000000" font-size="5px" font-weight="bold" font-family="'Helvetica Neue', Helvetica, Arial-Unicode, Arial, Sans-serif">from the Noun Project</text></svg>