<svg xmlns="http://www.w3.org/2000/svg" xmlns:xlink="http://www.w3.org/1999/xlink" version="1.1" x="0px" y="0px" viewBox="0 0 64 80" style="enable-background:new 0 0 64 64;" xml:space="preserve"><g><path d="M26.618,27h-7.236l-5,10h5.231l-1.102,3.304c-0.208,0.623-0.103,1.313,0.281,1.846C19.176,42.682,19.797,43,20.454,43   c0.651,0,1.269-0.313,1.646-0.829L29.921,31h-5.303L26.618,27z M26.079,33l-5.585,7.979l-0.074-0.06l-0.011,0.017L22.387,35h-4.769   l3-6h2.764l-2,4H26.079z"/><path d="M60,30h-5v-3c0-1.654-1.346-3-3-3h-3v-4c0-1.654-1.346-3-3-3h-2c-1.302,0-2.402,0.839-2.816,2H37v-1   c0-1.302-0.839-2.402-2-2.816V14c0-1.654-1.346-3-3-3h-4c-1.302,0-2.402,0.839-2.816,2H16c-1.654,0-3,1.346-3,3v3h-3   c-2.757,0-5,2.243-5,5H4c-1.654,0-3,1.346-3,3v6c0,1.654,1.346,3,3,3h1v2H4c-1.654,0-3,1.346-3,3v2c0,1.654,1.346,3,3,3h1   c0,2.757,2.243,5,5,5h31.184c0.414,1.161,1.514,2,2.816,2h2c1.654,0,3-1.346,3-3v-4h3c1.654,0,3-1.346,3-3v-3h5   c1.654,0,3-1.346,3-3v-4C63,31.346,61.654,30,60,30z M4,34c-0.551,0-1-0.448-1-1v-6c0-0.552,0.449-1,1-1h1v8H4z M4,44   c-0.551,0-1-0.448-1-1v-2c0-0.552,0.449-1,1-1h1v4H4z M53,34v2h-4v-2H53z M49,32v-2h4v2H49z M53,38v2h-4v-2H53z M52,26   c0.551,0,1,0.448,1,1v1h-4v-2H52z M13,25h18v20H13V25z M33,47v-2h8v4H13v-2H33z M33,43v-4h8v4H33z M33,37v-4h8v4H33z M33,31v-4h8v4   H33z M33,25v-2H13v-2h28v4H33z M25,19v-1c0-0.552,0.449-1,1-1h8c0.551,0,1,0.448,1,1v1H25z M28,13h4c0.551,0,1,0.448,1,1v1h-6v-1   C27,13.448,27.449,13,28,13z M15,16c0-0.552,0.449-1,1-1h9v0.184c-1.161,0.414-2,1.514-2,2.816v1h-8V16z M7,46V24   c0-1.654,1.346-3,3-3h1v2v24v2h-1C8.346,49,7,47.654,7,46z M47,50c0,0.552-0.449,1-1,1h-2c-0.551,0-1-0.448-1-1V20   c0-0.552,0.449-1,1-1h2c0.551,0,1,0.448,1,1V50z M52,44h-3v-2h4v1C53,43.552,52.551,44,52,44z M61,37c0,0.552-0.449,1-1,1h-5v-6h5   c0.551,0,1,0.448,1,1V37z"/></g><text x="0" y="79" fill="#000000" font-size="5px" font-weight="bold" font-family="'Helvetica Neue', Helvetica, Arial-Unicode, Arial, Sans-serif">Created by Eucalyp</text><text x="0" y="84" fill="#000000" font-size="5px" font-weight="bold" font-family="'Helvetica Neue', Helvetica, Arial-Unicode, Arial, Sans-serif">from the Noun Project</text></svg>